<?xml version="1.0" encoding="UTF-8"?>
<svg id="Symbol" xmlns="http://www.w3.org/2000/svg" viewBox="0 0 250.5 250.5">
  <defs>
    <style>
      .cls-1 {
        fill: #ff0420;
      }

      .cls-2 {
        fill: #fff;
      }
    </style>
  </defs>
  <circle class="cls-1" cx="125.25" cy="125.25" r="68.25"/>
  <path class="cls-2" d="M105.3574024,143.3896774c-4.0638042,0-7.3934921-.9561455-9.9888132-2.8685753-2.5612595-1.9464939-3.8418892-4.7126339-3.8418892-8.29842,0-.7512699.0852793-1.6733612.2561007-2.76614.4439491-2.4588242,1.0757492-5.4128101,1.8952688-8.8619728,2.3221909-9.3913277,8.3155809-14.086927,17.9800413-14.086927,2.6296406,0,4.9858906.4439491,7.0691368,1.3318474,2.0831223.8537102,3.7222904,2.1513695,4.9175144,3.8931118,1.195348,1.7075493,1.79296,3.7564785,1.79296,6.1470505,0,.7170769-.0854107,1.6221386-.2561031,2.7149174-.5123302,3.0392727-1.1269669,5.9932587-1.8441776,8.8619728-1.195219,4.6785698-3.2613117,8.1789501-6.1982731,10.501136-2.9368275,2.2880028-6.8641273,3.4319992-11.7817657,3.4319992ZM106.0746082,136.0133488c1.9124298,0,3.5345734-.5635479,4.8664207-1.6905197,1.3659115-1.1268379,2.3392204-2.8514168,2.9198029-5.1737415.785458-3.2100891,1.38307-6.0104172,1.7928261-8.4008553.1366333-.7172108.2048805-1.4514511.2048805-2.202721,0-3.1076488-1.6220097-4.6614113-4.8662868-4.6614113-1.9124298,0-3.5516029.563419-4.9176434,1.6903908-1.3318474,1.1269669-2.2881268,2.8515507-2.8685802,5.1737415-.6147655,2.2879978-1.2294071,5.0883259-1.8441776,8.4008553-.1366283.6830227-.2048805,1.4002335-.2048805,2.1515034,0,3.1418369,1.6391682,4.7127579,4.9176384,4.7127579ZM127.7896824,142.8774811c-.3757019,0-.6659931-.1194748-.8708736-.3585434-.1706875-.2732567-.2219101-.5805824-.1536579-.9220863l7.0691368-33.2963829c.0682522-.375568.2561031-.6830177.5634239-.9220863.3073208-.2389397.6318001-.3585434.9733089-.3585434h13.6258194c3.7906715,0,6.8300682.785463,9.118071,2.3563789,2.3221909,1.5709209,3.4833458,3.8418941,3.4833458,6.8129147,0,.8538391-.1024353,1.7417374-.3073158,2.6636997-.8537102,3.9272999-2.578289,6.8300682-5.1737366,8.7083099-2.5612595,1.8782368-6.0788033,2.8173576-10.5523636,2.8173576h-6.9154789l-2.3563839,11.2183517c-.0682472.3757019-.2560982.6830177-.563419.9220863s-.6318001.3585434-.9733089.3585434h-6.9665676ZM145.9233841,123.3094917c1.4342827,0,2.6807243-.3927315,3.739444-1.1781895,1.0927788-.785463,1.8099945-1.9124298,2.1514984-3.3809105.1024452-.5804535.1536629-1.0927837.1536629-1.5367329,0-.9903385-.2902863-1.7416084-.8708687-2.2539387-.5805824-.5463894-1.570916-.8195221-2.9710205-.8195221h-6.1470505l-1.9466179,9.1692936h5.8909523Z"/>
</svg>